<?xml version="1.0" encoding="UTF-8" standalone="no" ?>
<!DOCTYPE svg PUBLIC "-//W3C//DTD SVG 1.1//EN" "">
<svg xmlns="http://www.w3.org/2000/svg" xmlns:xlink="http://www.w3.org/1999/xlink" version="1.1" width="400" height="400" viewBox="0 0 400 400" xml:space="preserve">
<desc>Created with Fabric.js 3.6.2</desc>
<defs>
</defs>
<g transform="matrix(7.69 0 0 7.69 200 200)" id="Fill"  >
<path style="stroke: none; stroke-width: 1; stroke-dasharray: none; stroke-linecap: butt; stroke-dashoffset: 0; stroke-linejoin: miter; stroke-miterlimit: 4; fill: rgb(0,0,0); fill-rule: nonzero; opacity: 1;"  transform=" translate(-16, -16.7)" d="M 26 12 H 24 V 6 a 3 3 0 0 0 -3 -3 H 6 A 3 3 0 0 0 3 6 V 24.41 l 5.12 -5.12 A 1.05 1.05 0 0 1 8.83 19 H 12 v 3 a 3 3 0 0 0 3 3 h 8.17 a 1.05 1.05 0 0 1 0.71 0.29 L 29 30.41 V 15 A 3 3 0 0 0 26 12 Z M 12 15 v 2 H 8.83 a 3 3 0 0 0 -2.12 0.88 L 5 19.59 V 6 A 1 1 0 0 1 6 5 H 21 a 1 1 0 0 1 1 1 v 6 H 15 A 3 3 0 0 0 12 15 Z M 27 25.59 l -1.71 -1.71 A 3 3 0 0 0 23.17 23 H 15 a 1 1 0 0 1 -1 -1 V 15 a 1 1 0 0 1 1 -1 H 26 a 1 1 0 0 1 1 1 Z" stroke-linecap="round" />
</g>
</svg>