<?xml version="1.0" encoding="UTF-8" standalone="no" ?>
<!DOCTYPE svg PUBLIC "-//W3C//DTD SVG 1.1//EN" "http://www.w3.org/Graphics/SVG/1.1/DTD/svg11.dtd">
<svg xmlns="http://www.w3.org/2000/svg" xmlns:xlink="http://www.w3.org/1999/xlink" version="1.1" width="400" height="400" viewBox="0 0 400 400" xml:space="preserve">
<desc>Created with Fabric.js 3.6.2</desc>
<defs>
</defs>
<g transform="matrix(0.48 0 0 0.48 200 200)"  >
<path style="stroke: rgb(0,0,0); stroke-width: 32; stroke-dasharray: none; stroke-linecap: round; stroke-dashoffset: 0; stroke-linejoin: round; stroke-miterlimit: 4; fill: none; fill-rule: nonzero; opacity: 1;"  transform=" translate(-256, -256)" d="M 262.29 192.31 a 64 64 0 1 0 57.4 57.4 A 64.13 64.13 0 0 0 262.29 192.31 Z M 416.39 256 a 154.34 154.34 0 0 1 -1.53 20.79 l 45.21 35.46 A 10.81 10.81 0 0 1 462.52 326 l -42.77 74 a 10.81 10.81 0 0 1 -13.14 4.59 l -44.9 -18.08 a 16.11 16.11 0 0 0 -15.17 1.75 A 164.48 164.48 0 0 1 325 400.8 a 15.94 15.94 0 0 0 -8.82 12.14 l -6.73 47.89 A 11.08 11.08 0 0 1 298.77 470 H 213.23 a 11.11 11.11 0 0 1 -10.69 -8.87 l -6.72 -47.82 a 16.07 16.07 0 0 0 -9 -12.22 a 155.3 155.3 0 0 1 -21.46 -12.57 a 16 16 0 0 0 -15.11 -1.71 l -44.89 18.07 a 10.81 10.81 0 0 1 -13.14 -4.58 l -42.77 -74 a 10.8 10.8 0 0 1 2.45 -13.75 l 38.21 -30 a 16.05 16.05 0 0 0 6 -14.08 c -0.36 -4.17 -0.58 -8.33 -0.58 -12.5 s 0.21 -8.27 0.58 -12.35 a 16 16 0 0 0 -6.07 -13.94 l -38.19 -30 A 10.81 10.81 0 0 1 49.48 186 l 42.77 -74 a 10.81 10.81 0 0 1 13.14 -4.59 l 44.9 18.08 a 16.11 16.11 0 0 0 15.17 -1.75 A 164.48 164.48 0 0 1 187 111.2 a 15.94 15.94 0 0 0 8.82 -12.14 l 6.73 -47.89 A 11.08 11.08 0 0 1 213.23 42 h 85.54 a 11.11 11.11 0 0 1 10.69 8.87 l 6.72 47.82 a 16.07 16.07 0 0 0 9 12.22 a 155.3 155.3 0 0 1 21.46 12.57 a 16 16 0 0 0 15.11 1.71 l 44.89 -18.07 a 10.81 10.81 0 0 1 13.14 4.58 l 42.77 74 a 10.8 10.8 0 0 1 -2.45 13.75 l -38.21 30 a 16.05 16.05 0 0 0 -6.05 14.08 C 416.17 247.67 416.39 251.83 416.39 256 Z" stroke-linecap="round" />
</g>
</svg>